<?xml version="1.0" encoding="utf-8"?>
<!-- Generator: Adobe Illustrator 16.0.0, SVG Export Plug-In . SVG Version: 6.00 Build 0)  -->
<!DOCTYPE svg PUBLIC "-//W3C//DTD SVG 1.1//EN" "http://www.w3.org/Graphics/SVG/1.1/DTD/svg11.dtd">
<svg version="1.1" id="Icons" xmlns="http://www.w3.org/2000/svg" xmlns:xlink="http://www.w3.org/1999/xlink" x="0px" y="0px"
	 width="100px" height="100px" viewBox="0 0 100 100" enable-background="new 0 0 100 100" xml:space="preserve">
<path id="Facebook__x28_alt_x29_" fill="#023B40" d="M96,21.001C96,13.119,88.884,6,81,6H21C13.116,6,6,13.119,6,21.001v59.998
	C6,88.881,13.116,96,21.001,96H51V62H40V47h11v-5.844C51,31.077,58.568,22,67.875,22H80v15H67.875C66.548,37,65,38.611,65,41.024V47
	h15v15H65v34h16c7.884,0,15-7.119,15-15.001V21.001z"/>
</svg>
