<?xml version="1.0" encoding="utf-8"?>
<!-- Generator: Adobe Illustrator 16.0.0, SVG Export Plug-In . SVG Version: 6.00 Build 0)  -->
<!DOCTYPE svg PUBLIC "-//W3C//DTD SVG 1.1//EN" "http://www.w3.org/Graphics/SVG/1.1/DTD/svg11.dtd">
<svg version="1.1" id="Icons" xmlns="http://www.w3.org/2000/svg" xmlns:xlink="http://www.w3.org/1999/xlink" x="0px" y="0px"
	 width="100px" height="100px" viewBox="0 0 100 100" enable-background="new 0 0 100 100" xml:space="preserve">
<path id="LinkedIn__x28_alt_x29_" fill="#023B40" d="M88.877,6.608H12.174c-3.673,0-6.65,2.886-6.65,6.448v77.101
	c0,3.562,2.978,6.45,6.65,6.45h76.703c3.673,0,6.646-2.891,6.646-6.45V13.056C95.523,9.495,92.55,6.608,88.877,6.608z
	 M32.809,81.943H19.211V41.31h13.598V81.943z M26.011,35.759H25.92c-4.56,0-7.516-3.119-7.516-7.023
	c0-3.983,3.043-7.017,7.693-7.017c4.651,0,7.512,3.033,7.602,7.017C33.699,32.641,30.749,35.759,26.011,35.759z M81.827,81.943
	H68.232V60.204c0-5.464-1.969-9.19-6.885-9.19c-3.763,0-5.994,2.514-6.975,4.941c-0.364,0.868-0.453,2.08-0.453,3.292v22.696H40.329
	c0,0,0.178-36.823,0-40.634h13.593v5.761c1.805-2.768,5.029-6.717,12.249-6.717c8.947,0,15.656,5.804,15.656,18.292V81.943z
	 M53.834,47.199c0.023-0.038,0.057-0.084,0.088-0.128v0.128H53.834z"/>
</svg>
